<svg data-v-3c4d3bae="" xmlns="http://www.w3.org/2000/svg" width="24" height="24" viewBox="0 0 24 24" fill="none" class="h-6 w-6 shrink-0"><path d="M8 8H2.5C2.10218 8 1.72064 8.15804 1.43934 8.43934C1.15804 8.72064 1 9.10218 1 9.5V13C1 13.3978 1.15804 13.7794 1.43934 14.0607C1.72064 14.342 2.10218 14.5 2.5 14.5H8V8Z" fill="var(--theme-color-font, #F3F4F8)"></path><path d="M20.345 2.7597C20.1364 2.61851 19.8956 2.53214 19.6448 2.50855C19.394 2.48495 19.1413 2.5249 18.91 2.6247L9 7.6847V14.8197L18.905 19.9097C19.384 20.0568 19.9017 20.0083 20.345 19.7747C20.5469 19.637 20.7122 19.4521 20.8263 19.236C20.9405 19.0198 21.0001 18.7791 21 18.5347V3.9997C21.0001 3.75529 20.9405 3.51455 20.8263 3.29844C20.7122 3.08233 20.5469 2.89738 20.345 2.7597Z" fill="var(--theme-color-font, #F3F4F8)"></path><path d="M8.27511 15.5H4.23511L5.63511 20.41C5.7244 20.7243 5.91386 21.0008 6.17468 21.1975C6.43549 21.3943 6.75341 21.5005 7.08011 21.5H8.00011C8.22851 21.4901 8.45188 21.4298 8.65423 21.3234C8.85658 21.217 9.03288 21.0671 9.17051 20.8846C9.30813 20.702 9.40368 20.4913 9.45029 20.2675C9.4969 20.0437 9.49342 19.8123 9.44011 19.59L8.27511 15.5Z" fill="var(--theme-color-font, #F3F4F8)"></path><path d="M22 9.58984V12.9098C22.2918 12.8067 22.5445 12.6158 22.7235 12.3634C22.9026 12.1109 22.9991 11.8093 23 11.4998V10.9998C22.9991 10.6904 22.9026 10.3887 22.7235 10.1363C22.5445 9.88388 22.2918 9.693 22 9.58984Z" fill="var(--theme-color-font, #F3F4F8)"></path></svg>
