<svg data-v-76010732="" width="23" height="23" viewBox="0 0 36 36" fill="none" xmlns="http://www.w3.org/2000/svg" preserveAspectRatio="none"><path data-v-76010732="" d="M29.6065 24.3048C27.7354 22.7233 26.6625 20.4117 26.6625 17.9626V14.5125C26.6625 10.1577 23.4277 6.5529 19.2375 5.949V4.6125C19.2375 3.92816 18.6831 3.375 18 3.375C17.3169 3.375 16.7625 3.92816 16.7625 4.6125V5.949C12.5711 6.5529 9.3375 10.1577 9.3375 14.5125V17.9626C9.3375 20.4117 8.26459 22.7233 6.38235 24.3147C5.90096 24.7268 5.625 25.3258 5.625 25.9594C5.625 27.1536 6.59644 28.125 7.79062 28.125H28.2094C29.4036 28.125 30.375 27.1536 30.375 25.9594C30.375 25.3258 30.099 24.7268 29.6065 24.3048Z" fill="#F3F4F8"></path><path data-v-76010732="" d="M18 32.625C20.2182 32.625 22.0738 31.1726 22.5 29.25H13.5C13.9262 31.1726 15.7818 32.625 18 32.625Z" fill="#F3F4F8"></path></svg>
