<svg data-v-3c4d3bae="" xmlns="http://www.w3.org/2000/svg" width="24" height="24" viewBox="0 0 24 24" fill="none" class="h-6 w-6 shrink-0"><path d="M23.6139 12.8741C23.651 13.7602 23.3351 14.6248 22.7355 15.2783C22.136 15.9317 21.3017 16.3206 20.4157 16.3597C20.3639 16.3621 20.3121 16.3634 20.2605 16.3634C20.0251 16.3632 19.7904 16.3377 19.5604 16.2874C18.8781 17.3409 17.9834 18.2404 16.9336 18.9283C15.8837 19.6162 14.7018 20.0775 13.4635 20.2825C13.3171 20.7128 13.0249 21.0784 12.6375 21.3161C12.25 21.5538 11.7917 21.6487 11.3418 21.5843C10.8918 21.5199 10.4785 21.3004 10.1733 20.9636C9.86803 20.6268 9.69004 20.194 9.67008 19.7399C9.65012 19.2858 9.78943 18.839 10.0639 18.4767C10.3385 18.1145 10.7309 17.8595 11.1735 17.7559C11.6161 17.6523 12.0809 17.7066 12.4877 17.9094C12.8945 18.1122 13.2176 18.4507 13.4013 18.8665C15.1447 18.5441 16.7196 17.6201 17.8516 16.2556C18.9837 14.8912 19.601 13.1727 19.5961 11.3998C19.5961 7.21129 16.1885 3.80371 12 3.80371C7.81145 3.80371 4.40387 7.21129 4.40387 11.3998C4.40364 12.695 4.73465 13.9687 5.36542 15.0998C5.3868 15.1372 5.40284 15.1773 5.41309 15.2191C5.47402 15.3884 5.4675 15.5747 5.3949 15.7394C5.32229 15.9041 5.18916 16.0345 5.02304 16.1038C4.61629 16.2749 4.17941 16.3631 3.7381 16.363C3.68617 16.363 3.63412 16.3618 3.58196 16.3594C2.69635 16.3198 1.86257 15.9307 1.26345 15.2772C0.664339 14.6238 0.348783 13.7595 0.38598 12.8738C0.400933 12.5206 0.392589 12.2054 0.384433 11.9007C0.376839 11.6138 0.368917 11.3171 0.381948 11.0075C0.420839 10.1426 0.792852 9.32642 1.42007 8.72974C2.04728 8.13306 2.88105 7.80222 3.74673 7.80651C5.13685 4.62595 8.31278 2.39746 12 2.39746C15.6872 2.39746 18.8631 4.62595 20.2532 7.80655C21.119 7.80162 21.953 8.13217 22.5804 8.72887C23.2077 9.32556 23.5796 10.142 23.6179 11.0069C23.631 11.317 23.6231 11.6137 23.6154 11.9006C23.6074 12.2054 23.599 12.5207 23.6139 12.8741ZM17.8971 11.3998C17.8967 12.3032 17.6889 13.1945 17.2896 14.005C16.8903 14.8154 16.3102 15.5232 15.594 16.074C14.8779 16.6248 14.0448 17.0037 13.159 17.1815C12.2733 17.3594 11.3585 17.3314 10.4852 17.0998L8.09832 18.4783C7.97789 18.5478 7.83953 18.5801 7.70075 18.571C7.56197 18.5619 7.42901 18.5119 7.31867 18.4272C7.20833 18.3425 7.12558 18.2271 7.08088 18.0954C7.03618 17.9637 7.03154 17.8217 7.06754 17.6873L7.67757 15.4116C6.66733 14.3197 6.10522 12.8874 6.10309 11.3998C6.10309 8.14724 8.74829 5.50134 12 5.50134C15.2516 5.50134 17.8971 8.14724 17.8971 11.3998ZM10.3605 11.3998C10.3605 11.2133 10.2864 11.0345 10.1546 10.9026C10.0227 10.7708 9.84387 10.6967 9.65739 10.6967H9.65621C9.51721 10.6969 9.38139 10.7384 9.26594 10.8158C9.15048 10.8932 9.06056 11.0031 9.00755 11.1316C8.95453 11.2601 8.94079 11.4015 8.96807 11.5378C8.99535 11.6741 9.06242 11.7992 9.16081 11.8975C9.25919 11.9957 9.38448 12.0625 9.52084 12.0895C9.65719 12.1165 9.7985 12.1025 9.9269 12.0493C10.0553 11.996 10.165 11.9059 10.2422 11.7903C10.3194 11.6747 10.3607 11.5388 10.3607 11.3998H10.3605ZM12.7032 11.3998C12.7032 11.3768 12.7019 11.3538 12.6995 11.3309C12.6973 11.3079 12.6938 11.2851 12.6892 11.2625C12.685 11.2399 12.6794 11.2177 12.6723 11.1959C12.6658 11.1739 12.6578 11.1523 12.6494 11.1307C12.6409 11.1092 12.6306 11.089 12.6198 11.0689C12.6091 11.0486 12.5974 11.0289 12.5847 11.0098C12.5719 10.9905 12.5581 10.9719 12.5434 10.954C12.5289 10.9361 12.5135 10.919 12.497 10.9029C12.4811 10.8865 12.4637 10.8711 12.4459 10.8561C12.4281 10.842 12.4093 10.8279 12.3901 10.8153C12.371 10.8026 12.3513 10.7908 12.3311 10.7801C12.3109 10.7693 12.2898 10.7595 12.2687 10.7506C12.2476 10.7417 12.226 10.7341 12.2041 10.7276C12.1602 10.7135 12.1149 10.7044 12.0691 10.7004C12.0002 10.6938 11.9307 10.6971 11.8628 10.7103C11.8402 10.7149 11.8178 10.7207 11.7958 10.7276C11.7739 10.7341 11.7523 10.7417 11.7311 10.7506C11.71 10.7595 11.6889 10.7693 11.6688 10.7801C11.6486 10.7909 11.6289 10.8026 11.6097 10.8153C11.5904 10.8279 11.5717 10.842 11.5544 10.8561C11.5361 10.8711 11.5193 10.8865 11.5029 10.9029C11.4864 10.9191 11.4709 10.9361 11.4564 10.954C11.4419 10.9719 11.4283 10.9905 11.4157 11.0098C11.4028 11.0289 11.3909 11.0486 11.38 11.0689C11.3692 11.089 11.3595 11.1096 11.3509 11.1307C11.342 11.1521 11.3342 11.1738 11.3275 11.1959C11.321 11.2175 11.3154 11.24 11.3107 11.2625C11.306 11.2851 11.3026 11.3079 11.3003 11.3309C11.298 11.3539 11.297 11.3768 11.297 11.3998C11.297 11.4228 11.298 11.4462 11.3003 11.4692C11.3026 11.492 11.3061 11.5147 11.3107 11.5371C11.3154 11.5596 11.321 11.5821 11.3275 11.6042C11.3342 11.6261 11.342 11.6477 11.3509 11.6689C11.3595 11.6902 11.3692 11.711 11.38 11.7312C11.3908 11.7514 11.403 11.7711 11.4157 11.7903C11.4283 11.8094 11.4419 11.8279 11.4564 11.8456C11.471 11.8635 11.4865 11.8808 11.5029 11.8971C11.5193 11.9131 11.5361 11.929 11.5544 11.9436C11.572 11.9582 11.5905 11.9718 11.6097 11.9843C11.6289 11.997 11.6486 12.0092 11.6688 12.02C11.7095 12.0412 11.752 12.0587 11.7958 12.0725C11.8178 12.079 11.8403 12.0846 11.8628 12.0893C11.908 12.0986 11.954 12.1031 12.0002 12.1029C12.1864 12.1024 12.365 12.0285 12.497 11.8971C12.5294 11.8643 12.5588 11.8285 12.5847 11.7903C12.5973 11.7711 12.6091 11.7514 12.6198 11.7312C12.6306 11.7111 12.6405 11.69 12.6494 11.6689C12.6583 11.6478 12.6658 11.6257 12.6723 11.6042C12.6793 11.5822 12.685 11.5598 12.6892 11.5371C12.6938 11.5147 12.6972 11.492 12.6995 11.4692C12.7019 11.4461 12.7031 11.4229 12.7031 11.3997L12.7032 11.3998ZM15.047 11.3998C15.047 11.2133 14.9729 11.0345 14.841 10.9026C14.7092 10.7708 14.5303 10.6967 14.3439 10.6967H14.3425C14.2035 10.6969 14.0677 10.7384 13.9522 10.8158C13.8368 10.8933 13.7469 11.0032 13.6939 11.1317C13.6409 11.2602 13.6271 11.4015 13.6544 11.5378C13.6817 11.6741 13.7488 11.7993 13.8472 11.8975C13.9455 11.9957 14.0708 12.0625 14.2072 12.0895C14.3435 12.1165 14.4848 12.1025 14.6132 12.0493C14.7416 11.996 14.8514 11.9059 14.9286 11.7903C15.0058 11.6747 15.047 11.5388 15.047 11.3998Z" fill="var(--theme-color-font, #F3F4F8)"></path></svg>
