<svg xmlns="http://www.w3.org/2000/svg" width="25" height="21" viewBox="0 0 28 24" fill="none"><path d="M22.9594 20.1602H5.03938C4.11313 20.1602 3.35938 20.9139 3.35938 21.8402C3.35938 22.7664 4.11313 23.5202 5.03938 23.5202H22.9594C23.8856 23.5202 24.6394 22.7664 24.6394 21.8402C24.6394 20.9139 23.8856 20.1602 22.9594 20.1602Z" fill="var(--theme-color-font, #F3F4F8)"></path><path d="M25.76 3.36C24.5247 3.36 23.52 4.36466 23.52 5.6C23.52 6.42994 23.9792 7.14782 24.6523 7.53534C23.3565 10.6041 21.3349 12.4869 19.4454 12.3166C17.3443 12.1453 15.6307 9.66109 14.6854 5.50479C15.8972 5.19788 16.7999 4.10588 16.7999 2.8C16.7999 1.25552 15.5444 0 13.9999 0C12.4555 0 11.1999 1.25552 11.1999 2.8C11.1999 4.10594 12.1027 5.19794 13.3145 5.50479C12.3692 9.66109 10.6556 12.1453 8.55449 12.3166C6.67291 12.4869 4.64231 10.6041 3.34764 7.53534C4.02073 7.14782 4.47995 6.42988 4.47995 5.6C4.47995 4.36466 3.47528 3.36 2.23995 3.36C1.00466 3.36 0 4.36466 0 5.6C0 6.74915 0.873578 7.6877 1.98909 7.81534L4.14624 19.04H23.8538L26.0109 7.81534C27.1264 7.6877 28 6.74915 28 5.6C28 4.36466 26.9953 3.36 25.76 3.36Z" fill="var(--theme-color-font, #F3F4F8)"></path></svg>
