<svg xmlns="http://www.w3.org/2000/svg" width="24" height="24" viewBox="0 0 24 24" fill="none">
  <path d="M15.4651 13.4996C15.4666 14.3359 15.8001 15.1373 16.3921 15.7279C16.9841 16.3185 17.7863 16.65 18.6226 16.6496H21V18.7496C20.9983 19.3458 20.7606 19.9171 20.3391 20.3386C19.9175 20.7602 19.3462 20.9978 18.75 20.9996H11.46C12.0763 20.4586 12.5749 19.797 12.9252 19.0556C13.2755 18.3141 13.47 17.5088 13.4966 16.6892C13.5232 15.8696 13.3814 15.0533 13.08 14.2907C12.7785 13.5282 12.3238 12.8355 11.744 12.2557C11.1641 11.6759 10.4715 11.2212 9.70894 10.9197C8.94637 10.6183 8.13005 10.4764 7.31049 10.503C6.49092 10.5297 5.68552 10.7241 4.94411 11.0744C4.2027 11.4247 3.54104 11.9234 3.00005 12.5396V4.49962C2.99845 4.3607 3.03638 4.22419 3.10942 4.106C3.18246 3.98782 3.28758 3.89283 3.41255 3.83212C3.53708 3.76895 3.67678 3.74179 3.81591 3.75372C3.95504 3.76564 4.08808 3.81617 4.20005 3.89962L4.54505 4.15462C4.51488 4.26713 4.49975 4.38314 4.50005 4.49962C4.50124 4.89708 4.65965 5.27792 4.9407 5.55897C5.22175 5.84002 5.60259 5.99843 6.00005 5.99962H18.75C19.3462 6.0014 19.9175 6.23903 20.3391 6.6606C20.7606 7.08217 20.9983 7.65343 21 8.24962V10.3496H18.6226C17.7863 10.3492 16.9841 10.6807 16.3921 11.2713C15.8001 11.862 15.4666 12.6634 15.4651 13.4996Z" fill="var(--theme-color-font, #F3F4F8)"/>
  <path d="M21.0187 11.0996H18.6188C17.9822 11.0996 17.3718 11.3525 16.9217 11.8026C16.4716 12.2526 16.2188 12.8631 16.2188 13.4996C16.2188 14.1361 16.4716 14.7466 16.9217 15.1967C17.3718 15.6468 17.9822 15.8996 18.6188 15.8996H21.0187C21.337 15.8996 21.6422 15.7732 21.8673 15.5481C22.0923 15.3231 22.2188 15.0179 22.2188 14.6996V12.2996C22.2188 11.9813 22.0923 11.6761 21.8673 11.4511C21.6422 11.226 21.337 11.0996 21.0187 11.0996Z" fill="var(--theme-color-font, #F3F4F8)"/>
  <path d="M15 1.5H6C5.20435 1.5 4.44129 1.81607 3.87868 2.37868C3.31607 2.94129 3 3.70435 3 4.5C3 5.29565 3.31607 6.05871 3.87868 6.62132C4.44129 7.18393 5.20435 7.5 6 7.5H15.75C15.9489 7.5 16.1397 7.42098 16.2803 7.28033C16.421 7.13968 16.5 6.94891 16.5 6.75V3C16.4988 2.60254 16.3404 2.2217 16.0593 1.94065C15.7783 1.6596 15.3975 1.50119 15 1.5ZM6 6C5.60254 5.99881 5.2217 5.8404 4.94065 5.55935C4.6596 5.2783 4.50119 4.89746 4.5 4.5C4.4997 4.38352 4.51483 4.26751 4.545 4.155C4.62251 3.82702 4.80822 3.53469 5.07218 3.32515C5.33615 3.11562 5.66298 3.00108 6 3H15V6H6Z" fill="var(--theme-color-font, #F3F4F8)"/>
  <path d="M7.50003 11.25C6.46295 11.2509 5.44941 11.5592 4.58748 12.136C3.72556 12.7127 3.05393 13.532 2.65746 14.4903C2.261 15.4486 2.1575 16.5029 2.36005 17.52C2.56259 18.5371 3.06208 19.4713 3.79541 20.2047C4.52873 20.938 5.46298 21.4375 6.48008 21.64C7.49719 21.8426 8.55152 21.7391 9.50982 21.3426C10.4681 20.9462 11.2874 20.2745 11.8641 19.4126C12.4409 18.5507 12.7491 17.5371 12.75 16.5C12.753 15.8098 12.6192 15.1257 12.3565 14.4874C12.0937 13.8491 11.7071 13.2692 11.219 12.7811C10.7309 12.293 10.1509 11.9064 9.51264 11.6436C8.87433 11.3808 8.19031 11.2471 7.50003 11.25ZM7.15878 15.8183H7.84128C8.26477 15.8166 8.67373 15.9727 8.98842 16.2561C9.30312 16.5395 9.50101 16.9299 9.54352 17.3512C9.58603 17.7726 9.47011 18.1947 9.21836 18.5352C8.96662 18.8758 8.59708 19.1104 8.18178 19.1933V19.5683C8.18178 19.7491 8.10996 19.9225 7.9821 20.0504C7.85425 20.1782 7.68084 20.25 7.50003 20.25C7.31922 20.25 7.14582 20.1782 7.01796 20.0504C6.89011 19.9225 6.81828 19.7491 6.81828 19.5683V19.227H6.13653C5.95572 19.227 5.78232 19.1552 5.65446 19.0274C5.52661 18.8995 5.45478 18.7261 5.45478 18.5453C5.45478 18.3645 5.52661 18.1911 5.65446 18.0632C5.78232 17.9354 5.95572 17.8635 6.13653 17.8635H7.84128C7.92892 17.8594 8.01161 17.8217 8.07218 17.7583C8.13275 17.6948 8.16654 17.6104 8.16654 17.5227C8.16654 17.4349 8.13275 17.3506 8.07218 17.2871C8.01161 17.2236 7.92892 17.1859 7.84128 17.1818H7.15878C6.73529 17.1835 6.32634 17.0274 6.01165 16.744C5.69695 16.4606 5.49906 16.0702 5.45655 15.6489C5.41404 15.2275 5.52996 14.8054 5.7817 14.4649C6.03345 14.1243 6.40299 13.8897 6.81828 13.8068V13.4318C6.81828 13.251 6.89011 13.0776 7.01796 12.9497C7.14582 12.8219 7.31922 12.75 7.50003 12.75C7.68084 12.75 7.85425 12.8219 7.9821 12.9497C8.10996 13.0776 8.18178 13.251 8.18178 13.4318V13.773H8.86353C9.04434 13.773 9.21775 13.8449 9.3456 13.9727C9.47346 14.1006 9.54528 14.274 9.54528 14.4548C9.54528 14.6356 9.47346 14.809 9.3456 14.9369C9.21775 15.0647 9.04434 15.1365 8.86353 15.1365H7.15878C7.07114 15.1407 6.98845 15.1784 6.92789 15.2418C6.86732 15.3053 6.83353 15.3897 6.83353 15.4774C6.83353 15.5652 6.86732 15.6495 6.92789 15.713C6.98845 15.7765 7.07114 15.8142 7.15878 15.8183Z" fill="var(--theme-color-font, #F3F4F8)"/>
</svg>
