<svg data-v-3c4d3bae="" xmlns="http://www.w3.org/2000/svg" width="24" height="24" viewBox="0 0 24 24" fill="none" class="h-6 w-6 shrink-0"><g clip-path="url(#clip0_4528_31672)"><path d="M8.71771 0H1.82723C0.819634 0 0 0.819634 0 1.82723V8.71771C0 9.7253 0.819634 10.5449 1.82723 10.5449H8.71771C9.7253 10.5449 10.5449 9.7253 10.5449 8.71771V1.82723C10.5448 0.819634 9.7253 0 8.71771 0Z" fill="var(--theme-color-font, #F3F4F8)"></path><path d="M22.1725 0H15.2821C14.2745 0 13.4548 0.819634 13.4548 1.82723V8.71771C13.4548 9.7253 14.2745 10.5449 15.2821 10.5449H22.1725C23.1801 10.5449 23.9998 9.7253 23.9998 8.71771V1.82723C23.9998 0.819634 23.1801 0 22.1725 0Z" fill="var(--theme-color-font, #F3F4F8)"></path><path d="M8.71771 13.4551H1.82723C0.819634 13.4551 0 14.2746 0 15.2822V22.1727C0 23.1803 0.819634 23.9999 1.82723 23.9999H8.71771C9.7253 23.9999 10.5449 23.1803 10.5449 22.1727V15.2822C10.5448 14.2746 9.7253 13.4551 8.71771 13.4551Z" fill="var(--theme-color-font, #F3F4F8)"></path><path d="M22.1725 13.4551H15.2821C14.2745 13.4551 13.4548 14.2747 13.4548 15.2823V22.1728C13.4548 23.1804 14.2745 24 15.2821 24H22.1725C23.1801 23.9999 23.9998 23.1803 23.9998 22.1727V15.2822C23.9998 14.2746 23.1801 13.4551 22.1725 13.4551Z" fill="var(--theme-color-font, #F3F4F8)"></path></g><defs><clipPath id="clip0_4528_31672"><rect width="24" height="24" fill="white"></rect></clipPath></defs></svg>
