<svg data-v-3c4d3bae="" xmlns="http://www.w3.org/2000/svg" width="24" height="24" viewBox="0 0 24 24" fill="none" class="h-6 w-6 shrink-0"><path d="M6 3H18C20.2 3 22 4.8 22 7C22 8.7 21 10.1 19.5 10.7V7C19.5 6.6 19.3 6.2 19.1 5.9C18.9 5.6 18.4 5.5 18 5.5H6C5.6 5.5 5.2 5.7 4.9 5.9C4.6 6.1 4.5 6.6 4.5 7V10.7C3 10.1 2 8.7 2 7C2 4.8 3.8 3 6 3Z" fill="var(--theme-color-font, #F3F4F8)"></path><path fill-rule="evenodd" clip-rule="evenodd" d="M18 7V19C18 20.1 17.1 21 16 21H8C6.9 21 6 20.1 6 19V7H18ZM10.5 14.5L11.2 15.2V11C11.2 10.6 11.5 10.2 12 10.2C12.5 10.2 12.8 10.5 12.8 11V15.2L13.5 14.5C13.8 14.2 14.3 14.2 14.6 14.5C14.9 14.8 14.9 15.3 14.6 15.6L13.3 16.9C12.6 17.6 11.5 17.6 10.8 16.9L9.5 15.6C9.2 15.3 9.2 14.8 9.5 14.5C9.8 14.2 10.2 14.2 10.5 14.5Z" fill="var(--theme-color-font, #F3F4F8)"></path></svg>
