<svg width="32" height="32" viewBox="0 0 32 32" fill="none" xmlns="http://www.w3.org/2000/svg" class="w-[20px] h-[20px]"><path fill-rule="evenodd" clip-rule="evenodd" d="M13.99 2.65341L12.4767 4.64408C12.3447 4.81875 12.1073 4.88141 11.894 4.81475L9.44602 4.05475C8.69402 3.82141 7.87268 3.94808 7.23402 4.39208C6.57135 4.85208 6.18602 5.59075 6.18602 6.37341V8.83475C6.18602 9.02541 6.04335 9.18408 5.85401 9.24408L3.40602 10.0041C2.63802 10.2427 2.04202 10.8241 1.79268 11.5587C1.53802 12.3094 1.67135 13.1321 2.15668 13.7707L3.66868 15.7627C3.77668 15.9041 3.77668 16.0961 3.66868 16.2374L2.15668 18.2294C1.67135 18.8681 1.53802 19.6907 1.79268 20.4414C2.04202 21.1761 2.63802 21.7574 3.40602 21.9961L5.85401 22.7561C6.04335 22.8161 6.18602 22.9747 6.18602 23.1654V25.6267C6.18602 26.4094 6.57135 27.1481 7.23402 27.6081C7.87268 28.0521 8.69402 28.1787 9.44602 27.9454L11.894 27.1854C12.1073 27.1187 12.3447 27.1814 12.4767 27.3561L13.99 29.3467C14.458 29.9627 15.2033 30.3334 15.9993 30.3334C16.7953 30.3334 17.5407 29.9627 18.0087 29.3467L19.522 27.3561C19.654 27.1814 19.8913 27.1187 20.1047 27.1854L22.5527 27.9454C23.3047 28.1787 24.126 28.0521 24.7647 27.6081C25.4273 27.1481 25.8127 26.4094 25.8127 25.6267V23.1654C25.8127 22.9747 25.9553 22.8161 26.1447 22.7561L28.5927 21.9961C29.3607 21.7574 29.9567 21.1761 30.206 20.4414C30.4607 19.6907 30.3273 18.8681 29.842 18.2294L28.33 16.2374C28.222 16.0961 28.222 15.9041 28.33 15.7627L29.842 13.7707C30.3273 13.1321 30.4607 12.3094 30.206 11.5587C29.9567 10.8241 29.3607 10.2427 28.5927 10.0041L26.1447 9.24408C25.9553 9.18408 25.8127 9.02541 25.8127 8.83475V6.37341C25.8127 5.59075 25.4273 4.85208 24.7647 4.39208C24.126 3.94808 23.3047 3.82141 22.5527 4.05475L20.1047 4.81475C19.8913 4.88141 19.654 4.81875 19.522 4.64408L18.0087 2.65341C17.5407 2.03741 16.7953 1.66675 15.9993 1.66675C15.2033 1.66675 14.458 2.03741 13.99 2.65341ZM21.0233 18.5187C20.242 17.7387 18.9753 17.7387 18.194 18.5187C17.414 19.2987 17.414 20.5667 18.194 21.3467C18.9753 22.1281 20.242 22.1281 21.0233 21.3467C21.8033 20.5667 21.8033 19.2987 21.0233 18.5187ZM20.006 10.5787L10.578 20.0067C10.1873 20.3974 10.1873 21.0307 10.578 21.4214C10.9687 21.8121 11.602 21.8121 11.9927 21.4214L21.4207 11.9934C21.8113 11.6027 21.8113 10.9694 21.4207 10.5787C21.03 10.1881 20.3967 10.1881 20.006 10.5787ZM13.8047 10.6534C13.0233 9.87208 11.7567 9.87208 10.9753 10.6534C10.1953 11.4334 10.1953 12.7014 10.9753 13.4814C11.7567 14.2614 13.0233 14.2614 13.8047 13.4814C14.5847 12.7014 14.5847 11.4334 13.8047 10.6534Z" fill="var(--theme-color-font, #F3F4F8)"></path></svg>
