<svg width="32" height="32" viewBox="0 0 32 32" fill="none" xmlns="http://www.w3.org/2000/svg" class="w-[20px] h-[20px]"><path d="M26.6514 6.89242C24.3431 4.50467 21.3556 2.98636 18.1134 2.52448L19.0375 1.60036C19.4036 1.23423 19.4036 0.640672 19.0375 0.274547C18.6714 -0.0915156 18.0778 -0.0915156 17.7117 0.274547L15.3375 2.64867C14.9714 3.01473 14.9714 3.60836 15.3375 3.97448L17.7116 6.34861C17.8947 6.53167 18.1346 6.62323 18.3745 6.62323C18.6144 6.62323 18.8544 6.53167 19.0374 6.34861C19.4035 5.98255 19.4035 5.38892 19.0374 5.0228L18.5064 4.49186C21.0823 4.99592 23.4447 6.27305 25.3033 8.19555C27.6473 10.6203 28.9383 13.8135 28.9383 17.187C28.9384 24.321 23.1344 30.1249 16.0004 30.1249C8.8665 30.1249 3.0625 24.321 3.0625 17.187C3.0625 14.4649 3.89794 11.8609 5.47856 9.65661C7.02638 7.49805 9.16013 5.88736 11.6493 4.99873C12.1369 4.82461 12.3911 4.28823 12.217 3.80055C12.0429 3.31292 11.5064 3.0588 11.0188 3.23286C8.16863 4.25042 5.72594 6.09392 3.95475 8.56398C2.14438 11.0887 1.1875 14.0705 1.1875 17.1871C1.1875 21.1438 2.72831 24.8636 5.52613 27.6614C8.32394 30.459 12.0438 31.9999 16.0004 31.9999C19.9571 31.9999 23.6769 30.4591 26.4748 27.6614C29.2726 24.8635 30.8134 21.1437 30.8134 17.187C30.8134 13.3247 29.3353 9.66861 26.6514 6.89242Z" fill="var(--theme-color-font, #F3F4F8)"></path><path d="M6.36914 17.187C6.36914 22.4982 10.6901 26.8192 16.0014 26.8192C21.3126 26.8192 25.6336 22.4982 25.6336 17.187C25.6336 11.8758 21.3126 7.55469 16.0014 7.55469C10.6901 7.55469 6.36914 11.8757 6.36914 17.187ZM16.5769 18.0214C15.2274 17.5444 14.4455 17.1684 13.8783 16.7234C13.1801 16.1759 12.8606 15.2302 13.0442 14.2555C13.2435 13.1981 13.9808 12.3564 14.9686 12.0588C14.9823 12.0547 14.9958 12.0514 15.0094 12.0474V11.6699C15.0094 11.1521 15.4291 10.7324 15.9469 10.7324C16.4646 10.7324 16.8844 11.1521 16.8844 11.6699V11.9877C17.539 12.141 17.9958 12.4402 18.1805 12.5782C18.5952 12.8883 18.6801 13.4757 18.3701 13.8905C18.06 14.3053 17.4727 14.39 17.0578 14.0801C16.8593 13.9317 16.3115 13.6124 15.5095 13.8541C15.0356 13.9968 14.9131 14.4631 14.8868 14.6027C14.8348 14.8783 14.8945 15.1378 15.0353 15.2481C15.5258 15.6327 16.4056 15.9722 17.2017 16.2536C18.658 16.7684 19.4677 18.1174 19.2167 19.6105C19.0935 20.3436 18.7247 21.0237 18.1782 21.5259C17.8024 21.8711 17.3645 22.1166 16.8844 22.2551V22.704C16.8844 23.2217 16.4646 23.6415 15.9469 23.6415C15.4291 23.6415 15.0094 23.2217 15.0094 22.704V22.3473C14.3857 22.274 13.8653 22.0819 13.1653 21.6241C12.732 21.3406 12.6106 20.7596 12.894 20.3262C13.1775 19.8929 13.7586 19.7715 14.1918 20.0549C14.8408 20.4795 15.0861 20.5185 15.9406 20.5126C16.782 20.5069 17.2701 19.8799 17.3676 19.2996C17.4154 19.0162 17.4337 18.3243 16.5769 18.0214Z" fill="var(--theme-color-font, #F3F4F8)"></path></svg>
