<svg data-v-77a8a745="" width="64" height="64" viewBox="0 0 64 64" fill="none" xmlns="http://www.w3.org/2000/svg" class="w-[20px] h-[20px] shrink-0"><path d="M14 0V64C9.58 64 6 60.42 6 56V8C6 3.58 9.58 0 14 0Z" fill="var(--theme-color-font, #F3F4F8)"></path><path d="M38 30C41.3137 30 44 27.3137 44 24C44 20.6863 41.3137 18 38 18C34.6863 18 32 20.6863 32 24C32 27.3137 34.6863 30 38 30Z" fill="var(--theme-color-font, #F3F4F8)"></path><path d="M52 0H18V64H52C55.3 64 58 61.3 58 58V6C58 2.7 55.3 0 52 0ZM48 54H28C26.8956 54 26 53.1044 26 52C26 50.8956 26.8956 50 28 50H48C49.1054 50 50 50.8956 50 52C50 53.1044 49.1054 54 48 54ZM50 46H26C24.8956 46 24 45.1044 24 44C24 42.8956 24.8956 42 26 42H50C51.1054 42 52 42.8956 52 44C52 45.1044 51.1054 46 50 46ZM50 26H47.7978C47.538 27.2746 47.029 28.4574 46.3336 29.5064L47.8984 31.0712C48.6796 31.8524 48.6796 33.118 47.8984 33.8994C47.5078 34.29 46.996 34.4854 46.4844 34.4854C45.9728 34.4854 45.461 34.29 45.0704 33.8994L43.5052 32.3342C42.4564 33.0292 41.2742 33.538 40 33.7978V36C40 37.1044 39.1054 38 38 38C36.8946 38 36 37.1044 36 36V33.7978C34.7258 33.538 33.543 33.0292 32.4942 32.334L30.9288 33.8994C30.5382 34.29 30.0264 34.4854 29.5148 34.4854C29.0032 34.4854 28.4914 34.29 28.1008 33.8994C27.3196 33.1182 27.3196 31.8526 28.1008 31.0712L29.6662 29.5058C28.971 28.457 28.462 27.2742 28.2024 26H26.0002C24.8958 26 24.0002 25.1044 24.0002 24C24.0002 22.8956 24.8958 22 26.0002 22H28.2024C28.4622 20.7258 28.971 19.543 29.6662 18.4942L28.1008 16.9288C27.3196 16.1476 27.3196 14.882 28.1008 14.1006C28.882 13.3192 30.1476 13.3194 30.929 14.1006L32.4944 15.666C33.5432 14.9708 34.726 14.4618 36.0002 14.2022V12C36.0002 10.8956 36.8948 10 38.0002 10C39.1056 10 40.0002 10.8956 40.0002 12V14.2022C41.2742 14.462 42.4566 14.9708 43.5054 15.6658L45.0706 14.1006C45.8518 13.3194 47.1174 13.3194 47.8988 14.1006C48.6802 14.8818 48.68 16.1474 47.8988 16.9288L46.334 18.4936C47.0294 19.5426 47.5384 20.7256 47.7982 22H50.0004C51.1058 22 52.0004 22.8956 52.0004 24C52.0004 25.1044 51.1054 26 50 26Z" fill="var(--theme-color-font, #F3F4F8)"></path></svg>
