<svg data-v-77a8a745="" width="64" height="64" viewBox="0 0 64 64" fill="none" xmlns="http://www.w3.org/2000/svg" class="w-[20px] h-[20px] shrink-0"><g clip-path="url(#clip0_1432_27376)"><path d="M49.4545 0H14.5455C10.6892 0.00461919 6.99217 1.53856 4.26537 4.26534C1.53857 6.99212 0.00461922 10.6891 0 14.5454V37.8179C0.00423134 41.1698 1.1639 44.4177 3.28354 47.0142C5.40319 49.6108 8.3532 51.3972 11.6364 52.0724V61.0905C11.6363 61.6172 11.7792 62.134 12.0498 62.5858C12.3205 63.0376 12.7087 63.4075 13.173 63.6559C13.6374 63.9044 14.1605 64.0221 14.6866 63.9966C15.2126 63.971 15.7219 63.8031 16.16 63.5108L32.8727 52.3633H49.4545C53.3108 52.3587 57.0078 50.8247 59.7346 48.0979C62.4614 45.3712 63.9954 41.6742 64 37.8179V14.5454C63.9954 10.6891 62.4614 6.99212 59.7346 4.26534C57.0078 1.53856 53.3108 0.00461919 49.4545 0ZM43.6364 34.9089H20.3636C19.5921 34.9089 18.8522 34.6024 18.3066 34.0568C17.761 33.5112 17.4545 32.7713 17.4545 31.9998C17.4545 31.2282 17.761 30.4883 18.3066 29.9428C18.8522 29.3972 19.5921 29.0907 20.3636 29.0907H43.6364C44.4079 29.0907 45.1478 29.3972 45.6934 29.9428C46.239 30.4883 46.5455 31.2282 46.5455 31.9998C46.5455 32.7713 46.239 33.5112 45.6934 34.0568C45.1478 34.6024 44.4079 34.9089 43.6364 34.9089ZM49.4545 23.2726H14.5455C13.7739 23.2726 13.034 22.9661 12.4884 22.4205C11.9429 21.875 11.6364 21.135 11.6364 20.3635C11.6364 19.592 11.9429 18.852 12.4884 18.3065C13.034 17.7609 13.7739 17.4544 14.5455 17.4544H49.4545C50.2261 17.4544 50.966 17.7609 51.5116 18.3065C52.0571 18.852 52.3636 19.592 52.3636 20.3635C52.3636 21.135 52.0571 21.875 51.5116 22.4205C50.966 22.9661 50.2261 23.2726 49.4545 23.2726Z" fill="var(--theme-color-font, #F3F4F8)"></path></g><defs><clipPath id="clip0_1432_27376"><rect width="64" height="64" fill="white"></rect></clipPath></defs></svg>
