<svg data-v-77a8a745="" width="64" height="64" viewBox="0 0 64 64" fill="none" xmlns="http://www.w3.org/2000/svg" class="w-[20px] h-[20px] shrink-0"><g clip-path="url(#clip0_1432_27385)"><path d="M40.3127 34.6665C38.8265 34.6665 37.6253 35.8613 37.6253 37.333V48C37.6253 49.4692 36.4211 50.6665 34.9375 50.6665H26.8749V10.6665C26.8749 8.38916 25.4129 6.35449 23.2147 5.59717L22.419 5.33301H34.9375C36.4211 5.33301 37.6253 6.53027 37.6253 8V16C37.6253 17.4717 38.8265 18.6665 40.3127 18.6665C41.7988 18.6665 43 17.4717 43 16V8C43 3.58936 39.3826 0 34.9375 0H6.0469C5.94454 0 5.85892 0.0454102 5.75951 0.0585937C5.63009 0.0478516 5.50657 0 5.37518 0C2.41079 0 0 2.3916 0 5.33301V53.333C0 55.6104 1.46202 57.645 3.66022 58.4023L19.834 63.752C20.3822 63.9199 20.9274 64 21.5002 64C24.4646 64 26.8749 61.6079 26.8749 58.6665V56H34.9375C39.3826 56 43 52.4106 43 48V37.333C43 35.8613 41.7988 34.6665 40.3127 34.6665Z" fill="var(--theme-color-font, #F3F4F8)"></path><path d="M63.227 24.5912L52.6815 13.7918C51.928 13.0196 50.7941 12.7873 49.8084 13.2055C48.8251 13.6242 48.1816 14.6095 48.1816 15.7006V23.8003H37.6366C36.1812 23.8003 35 25.0095 35 26.5C35 27.9905 36.1812 29.1997 37.6366 29.1997H48.1816V37.2994C48.1816 38.3905 48.8251 39.3758 49.8084 39.7945C50.7941 40.2127 51.928 39.9804 52.6815 39.2087L63.227 28.4087C64.2577 27.3533 64.2577 25.6467 63.227 24.5912Z" fill="var(--theme-color-font, #F3F4F8)"></path></g><defs><clipPath id="clip0_1432_27385"><rect width="64" height="64" fill="white"></rect></clipPath></defs></svg>
