<svg data-v-77a8a745="" width="64" height="64" viewBox="0 0 64 64" fill="none" xmlns="http://www.w3.org/2000/svg" class="w-[20px] h-[20px] shrink-0"><path d="M30.4901 50.3729C30.4911 47.2243 31.3551 44.1342 32.9911 41.4277C34.6272 38.7211 36.9749 36.4981 39.7873 34.9926C42.5996 33.4871 45.7726 32.7547 48.9725 32.8724C52.1724 32.9902 55.2809 33.9538 57.9709 35.6618C57.9899 34.3641 58 32.9793 58 31.4851C58 23.8023 57.7343 19.0072 57.2092 14.0405H57.2838C56.9935 11.2729 55.9185 8.64104 54.1814 6.44469C52.4443 4.24835 50.1149 2.57577 47.4584 1.61743C47.318 1.56517 47.1775 1.5154 47.0358 1.46813C45.986 1.12114 44.9005 0.888741 43.799 0.77512L43.694 0.763923C39.4918 0.33966 38.8174 0 29.9562 0C21.0949 0 19.6613 0.33966 15.4629 0.770144L15.3579 0.781341C14.2016 0.90074 13.0632 1.15124 11.9655 1.52785V1.47186C9.22833 2.38692 6.81541 4.05447 5.01274 6.27683C3.21006 8.4992 2.09323 11.1832 1.79464 14.0106C1.26825 18.9873 1 23.7874 1 31.4851C1 39.1828 1.26825 43.9828 1.79464 48.9595C2.15407 52.3556 3.69045 55.5267 6.14599 57.941C8.60153 60.3552 11.8268 61.8656 15.2807 62.2187L15.3857 62.2299C19.5879 62.6603 20.2611 63 29.1223 63C32.0579 63 34.1837 62.9627 35.8527 62.8967C34.153 61.2675 32.8028 59.3198 31.8817 57.1687C30.9607 55.0176 30.4875 52.7068 30.4901 50.3729ZM15.6856 16.5662H43.3093C44.1087 16.5662 44.8754 16.8784 45.4406 17.4342C46.0058 17.99 46.3234 18.7438 46.3234 19.5298C46.3234 20.3158 46.0058 21.0696 45.4406 21.6254C44.8754 22.1812 44.1087 22.4934 43.3093 22.4934H15.6919C14.8925 22.4934 14.1259 22.1812 13.5607 21.6254C12.9954 21.0696 12.6779 20.3158 12.6779 19.5298C12.6779 18.7438 12.9954 17.99 13.5607 17.4342C14.1259 16.8784 14.8925 16.5662 15.6919 16.5662H15.6856ZM15.6856 35.1753C14.8967 35.1594 14.1457 34.8401 13.5935 34.2859C13.0413 33.7318 12.732 32.9869 12.732 32.211C12.732 31.4352 13.0413 30.6903 13.5935 30.1362C14.1457 29.582 14.8967 29.2627 15.6856 29.2468H31.4404C31.8415 29.2387 32.2402 29.3094 32.6131 29.4548C32.9861 29.6001 33.3258 29.8172 33.6124 30.0932C33.8989 30.3693 34.1266 30.6988 34.282 31.0624C34.4374 31.4261 34.5175 31.8166 34.5175 32.211C34.5175 32.6055 34.4374 32.996 34.282 33.3597C34.1266 33.7233 33.8989 34.0528 33.6124 34.3289C33.3258 34.6049 32.9861 34.822 32.6131 34.9673C32.2402 35.1127 31.8415 35.1834 31.4404 35.1753H15.6856Z" fill="var(--theme-color-font, #F3F4F8)"></path><path d="M48.5 37C45.83 37 43.2199 37.7918 40.9998 39.2752C38.7797 40.7586 37.0494 42.867 36.0276 45.3338C35.0058 47.8006 34.7385 50.515 35.2594 53.1337C35.7803 55.7525 37.0661 58.1579 38.9541 60.0459C40.8421 61.9339 43.2475 63.2197 45.8663 63.7406C48.485 64.2615 51.1994 63.9942 53.6662 62.9724C56.133 61.9506 58.2414 60.2203 59.7248 58.0002C61.2082 55.7801 62 53.17 62 50.5C62 46.9196 60.5777 43.4858 58.0459 40.9541C55.5142 38.4223 52.0804 37 48.5 37ZM53.8506 52.4759H48.2316C47.8055 52.4759 47.3968 52.3066 47.0955 52.0053C46.7942 51.704 46.6249 51.2953 46.6249 50.8692V42.2372C46.6249 41.8111 46.7942 41.4024 47.0955 41.1011C47.3968 40.7998 47.8055 40.6305 48.2316 40.6305C48.6577 40.6305 49.0664 40.7998 49.3677 41.1011C49.669 41.4024 49.8383 41.8111 49.8383 42.2372V49.2625H53.8506C54.2767 49.2625 54.6854 49.4318 54.9867 49.7331C55.288 50.0344 55.4573 50.4431 55.4573 50.8692C55.4573 51.2953 55.288 51.704 54.9867 52.0053C54.6854 52.3066 54.2767 52.4759 53.8506 52.4759Z" fill="var(--theme-color-font, #F3F4F8)"></path></svg>
