<svg data-v-77a8a745="" width="64" height="64" viewBox="0 0 64 64" fill="none" xmlns="http://www.w3.org/2000/svg" class="w-[20px] h-[20px] shrink-0"><g clip-path="url(#clip0_1432_27347)"><path d="M61.5541 21.4521L35.9541 1.32585C34.8152 0.46546 33.427 0 32 0C30.573 0 29.1848 0.46546 28.0459 1.32585L2.44588 21.4521H2.44375C1.68067 22.0506 1.06398 22.8153 0.640531 23.688C0.217085 24.5608 -0.00197001 25.5187 1.33489e-05 26.4889V57.5956C0.00187677 59.2936 0.676759 60.9215 1.87659 62.1221C3.07642 63.3228 4.7032 63.9981 6.40001 64H19.2C20.8968 63.9981 22.5236 63.3228 23.7234 62.1221C24.9233 60.9215 25.5981 59.2936 25.6 57.5956V46.9216C25.6003 46.3556 25.8252 45.8128 26.2252 45.4125C26.6252 45.0122 27.1676 44.7872 27.7333 44.7868H36.2667C36.8324 44.7872 37.3748 45.0122 37.7748 45.4125C38.1748 45.8128 38.3997 46.3556 38.4 46.9216V57.5956C38.4019 59.2936 39.0767 60.9215 40.2766 62.1221C41.4764 63.3228 43.1032 63.9981 44.8 64H57.6C59.2968 63.9981 60.9236 63.3228 62.1234 62.1221C63.3232 60.9215 63.9981 59.2936 64 57.5956V26.4889C64.0021 25.5184 63.7829 24.5603 63.3591 23.6875C62.9352 22.8146 62.3179 22.0501 61.5541 21.4521Z" fill="var(--theme-color-font, #F3F4F8)"></path></g><defs><clipPath id="clip0_1432_27347"><rect width="64" height="64" fill="white"></rect></clipPath></defs></svg>
