<svg data-v-77a8a745="" width="64" height="64" viewBox="0 0 64 64" fill="none" xmlns="http://www.w3.org/2000/svg" class="w-[20px] h-[20px] shrink-0"><path d="M50 24H48V16C48 7.176 40.824 0 32 0C23.176 0 16 7.176 16 16V24H14C10.6933 24 8 26.6907 8 30V58C8 61.3093 10.6933 64 14 64H50C53.3067 64 56 61.3093 56 58V30C56 26.6907 53.3067 24 50 24ZM21.3333 16C21.3333 10.1173 26.1173 5.33333 32 5.33333C37.8827 5.33333 42.6667 10.1173 42.6667 16V24H21.3333V16ZM34.6667 44.592V50.6667C34.6667 52.1387 33.4747 53.3333 32 53.3333C30.5253 53.3333 29.3333 52.1387 29.3333 50.6667V44.592C27.7467 43.6667 26.6667 41.9653 26.6667 40C26.6667 37.0587 29.0587 34.6667 32 34.6667C34.9413 34.6667 37.3333 37.0587 37.3333 40C37.3333 41.9653 36.2533 43.6667 34.6667 44.592Z" fill="var(--theme-color-font, #F3F4F8)"></path></svg>
