<svg data-v-77a8a745="" width="64" height="64" viewBox="0 0 64 64" fill="none" xmlns="http://www.w3.org/2000/svg" class="w-[20px] h-[20px] shrink-0"><g clip-path="url(#clip0_1432_27350)"><path d="M31.5 31C35.7587 31 39.4464 29.4725 42.4595 26.4589C45.4726 23.4457 47 19.7588 47 15.4995C47 11.2417 45.4726 7.55434 42.459 4.54017C39.4454 1.52746 35.7582 0 31.5 0C27.2408 0 23.5541 1.52746 20.541 4.54066C17.5279 7.55385 16 11.2412 16 15.4995C16 19.7588 17.5279 23.4462 20.5415 26.4593C23.5551 29.472 27.2423 31 31.5 31Z" fill="var(--theme-color-font, #F3F4F8)"></path><path d="M57.8716 49.2508C57.7858 48.007 57.6123 46.6502 57.3568 45.2174C57.099 43.7739 56.767 42.4093 56.3696 41.162C55.9591 39.8729 55.4007 38.5998 54.7106 37.3799C53.9942 36.1136 53.1529 35.011 52.2087 34.1037C51.2215 33.1545 50.0127 32.3914 48.615 31.8347C47.222 31.281 45.6784 31.0005 44.0271 31.0005C43.3786 31.0005 42.7515 31.2679 41.5403 32.0602C40.7949 32.5487 39.923 33.1136 38.9498 33.7385C38.1176 34.2713 36.9903 34.7705 35.5978 35.2224C34.2393 35.6641 32.86 35.8881 31.4985 35.8881C30.1371 35.8881 28.7583 35.6641 27.3983 35.2224C26.0073 34.7709 24.88 34.2718 24.0488 33.739C23.0848 33.12 22.2124 32.555 21.4558 32.0597C20.2461 31.2674 19.6185 31 18.97 31C17.3182 31 15.7751 31.281 14.3826 31.8352C12.9858 32.3909 11.7766 33.1541 10.7883 34.1042C9.84471 35.012 9.00284 36.1141 8.28748 37.3799C7.5978 38.5998 7.03947 39.8724 6.62847 41.1625C6.23153 42.4097 5.89954 43.7739 5.6417 45.2174C5.38628 46.6482 5.21277 48.0055 5.12698 49.2523C5.04265 50.4737 5 51.7414 5 53.0218C5 56.3539 6.05415 59.0515 8.13287 61.0409C10.1859 63.0041 12.9025 64 16.2059 64H46.7941C50.0975 64 52.8131 63.0045 54.8666 61.0409C56.9459 59.0529 58 56.3549 58 53.0213C57.9995 51.7351 57.9564 50.4664 57.8716 49.2508Z" fill="var(--theme-color-font, #F3F4F8)"></path></g><defs><clipPath id="clip0_1432_27350"><rect width="64" height="64" fill="white"></rect></clipPath></defs></svg>
